# xmcd
#
# Track frame offsets: 
#        150
#        19910
#        37712
#        56870
#        77635
#        94202
#        113712
#        131427
#        146492
#        163375
#        181422
#        200715
#        217532
#        230725
#
# Disc length: 3254 seconds
#
# Revision: 1
# Processed by: cddbd v1.5.2PL0 Copyright (c) Steve Scherf et al.
# Submitted via: ExactAudioCopy v1.0b1
#
DISCID=c00cb40e
DTITLE=Gotthard - Open
DYEAR=1999
DGENRE=Hard Rock
TTITLE0=Free And Alive
TTITLE1=Vision
TTITLE2=Got To Be Love
TTITLE3=Let It Rain
TTITLE4=Blackberry Way
TTITLE5=You
TTITLE6=Cheat and Hide
TTITLE7=Want You In
TTITLE8=Teel No Lies
TTITLE9=Back To You
TTITLE10=Best Time
TTITLE11=Hey Jimi
TTITLE12=Peace Of Mind
TTITLE13=Mad Love
EXTD=YEAR: 1999
EXTT0=
EXTT1=
EXTT2=
EXTT3=
EXTT4=
EXTT5=
EXTT6=
EXTT7=
EXTT8=
EXTT9=
EXTT10=
EXTT11=
EXTT12=
EXTT13=
PLAYORDER=
